<svg width="169" height="169" viewBox="0 0 169 169" version="1.1" xmlns="http://www.w3.org/2000/svg" xmlns:xlink="http://www.w3.org/1999/xlink" xml:space="preserve" xmlns:serif="http://www.serif.com/" style="fill-rule:evenodd;clip-rule:evenodd;stroke-linejoin:round;stroke-miterlimit:2;">
    <g transform="matrix(0.238537,0,0,0.238537,31.0256,23.1178)">
        <g transform="matrix(1.56938,0,0,1.37102,-125.611,-91.7755)">
            <rect x="-2.839" y="-3.749" width="451.442" height="516.758" style="fill:rgb(48,63,159);"/>
        </g>
        <g transform="matrix(9.31368,0,0,9.31368,1123.87,847.543)">
            <g transform="matrix(4.19222,0,0,4.19222,-130.066,-96.9149)">
                <path d="M5.492,1.023C7.968,1.023 9.979,3.033 9.979,5.51C9.979,7.987 7.968,9.998 5.492,9.998C3.015,9.998 1.004,7.987 1.004,5.51C1.004,3.033 3.015,1.023 5.492,1.023ZM5.492,2.023C3.567,2.023 2.004,3.585 2.004,5.51C2.004,7.435 3.567,8.998 5.492,8.998C7.416,8.998 8.979,7.435 8.979,5.51C8.979,3.585 7.416,2.023 5.492,2.023Z" style="fill:white;"/>
            </g>
            <g transform="matrix(4.19222,0,0,4.19222,-109.177,-76.0254)">
                <path d="M6.026,1.054C8.251,1.319 9.979,3.214 9.979,5.51C9.979,7.987 7.968,9.998 5.492,9.998C3.188,9.998 1.288,8.258 1.033,6.022L2.042,6.022C2.29,7.705 3.741,8.998 5.492,8.998C7.416,8.998 8.979,7.435 8.979,5.51C8.979,3.767 7.698,2.321 6.026,2.063L6.026,1.054Z" style="fill:white;fill-opacity:0.6;"/>
            </g>
            <g transform="matrix(4.13053,0,0,4.08936,-129.94,-96.7131)">
                <path d="M4.608,7.51L4.608,3.881L5.481,3.881L5.481,6.746L6.872,6.746L6.872,7.51L4.608,7.51Z" style="fill:white;fill-rule:nonzero;"/>
            </g>
            <g transform="matrix(4.13053,0,0,4.08936,-109.035,-75.8074)">
                <path d="M6.529,7.51L6.25,6.798L4.86,6.798L4.596,7.51L3.652,7.51L5.159,3.881L6.001,3.881L7.493,7.51L6.529,7.51ZM5.565,4.85L5.108,6.095L6.011,6.095L5.565,4.85Z" style="fill:white;fill-opacity:0.6;fill-rule:nonzero;"/>
            </g>
        </g>
    </g>
</svg>
